<svg id="Capa_1" data-name="Capa 1" xmlns="http://www.w3.org/2000/svg" viewBox="0 0 500.19 500.19"><defs><style>.cls-1{fill:#030404;}.cls-2{fill:#fdfdfd;}.cls-3{fill:#040404;}.cls-4{fill:#e3f4fb;}.cls-5{fill:#d1ecfb;}.cls-6{fill:#030303;}.cls-7{fill:#678dd4;}.cls-8{fill:#070707;}.cls-9{fill:#050505;}.cls-10{fill:#fdd05a;}.cls-11{fill:#4171c8;}</style></defs><title>night</title><path class="cls-1" d="M230.47,1h39.06c.3,1.06,1.18.87,2,.91a220.34,220.34,0,0,1,28,3.81c102.7,19.59,184.12,105,198.78,208.3.82,5.82.63,11.82,2.71,17.45v40c-1.53.55-.91,1.91-1,2.92a270.54,270.54,0,0,1-4.11,27.48C474,405.11,391.78,482.52,287.43,498.34c-5.64.85-11.47.57-16.92,2.64h-40c-.71-1.67-2.24-1-3.39-1.07a254.14,254.14,0,0,1-50.83-10.4c-6.36-2-7.44-3.38-7.4-10,3.85-5.43,5.47-5.84,12.92-3.64,60.49,17.92,119.69,14.18,175.49-15.22C437,418.63,480.09,351.39,486,261.29c2.48-38.07-5.28-74.69-21.41-109.33C452.8,126.72,437.29,104,417.09,84.7a4,4,0,0,0-.51-.8q-65.31-64-156.69-68c-47-2-90.74,9.67-131.08,33.93-5.58,3.36-7.88,3.09-12.48-1.18-1.86-5.17.1-8.55,4.65-11.28A252,252,0,0,1,214.05,3.7C219.53,2.88,225.23,3.25,230.47,1Z" transform="translate(-0.88 -0.88)"/><path class="cls-2" d="M168.85,479.5c0,6.63,1,8,7.4,10a254.14,254.14,0,0,0,50.83,10.4c1.15.12,2.68-.6,3.39,1.07q-112.8,0-225.59.09c-3.34,0-4-.66-4-4q.19-112.79.1-225.59c2.28,5.25,1.81,11,2.74,16.45,14.34,84.57,59.74,146.58,135.4,186.63,5.61,3,7.45,2.52,11.94-2.06Z" transform="translate(-0.88 -0.88)"/><path class="cls-2" d="M230.47,1c-5.24,2.27-10.94,1.9-16.42,2.72A252,252,0,0,0,121,37.34c-4.55,2.73-6.51,6.11-4.65,11.28-5,4.07-9.83,8.25-15.74,11-4.24-3.12-7.93-2.28-11.77,1.07C41.9,101.51,13.35,152.51,3.69,214.06c-.81,5.15-.27,10.57-2.71,15.43Q1,117.3.88,5.12C.87,1.6,1.61.87,5.12.88Q117.8,1.08,230.47,1Z" transform="translate(-0.88 -0.88)"/><path class="cls-2" d="M501,231.45c-2.08-5.63-1.89-11.63-2.71-17.45C483.61,110.66,402.19,25.29,299.49,5.7a220.34,220.34,0,0,0-28-3.81c-.78,0-1.66.15-2-.91q113.66,0,227.3-.1c3.52,0,4.25.72,4.24,4.24Q500.89,118.28,501,231.45Z" transform="translate(-0.88 -0.88)"/><path class="cls-2" d="M270.51,501c5.45-2.07,11.28-1.79,16.92-2.64C391.78,482.52,474,405.11,495.85,301.88A270.54,270.54,0,0,0,500,274.4c.11-1-.51-2.37,1-2.92q0,112.8.09,225.59c0,3.34-.66,4-4,4Q383.79,500.89,270.51,501Z" transform="translate(-0.88 -0.88)"/><path class="cls-3" d="M1,229.49c2.44-4.86,1.9-10.28,2.71-15.43C13.35,152.51,41.9,101.51,88.82,60.65c3.84-3.35,7.53-4.19,11.77-1.07,3.19,5.83,2.7,8-2.9,12.86C13.85,145.1-8.52,263.39,43.2,361.5,54.09,382.16,67.64,401,84.73,417.08c1.55,1.64,3,3.37,4.65,4.92A232.42,232.42,0,0,0,145,461.05c6.45,3.25,7.16,4.7,6.1,11.45-4.49,4.58-6.33,5-11.94,2.06C63.46,434.51,18.06,372.5,3.72,287.93c-.93-5.48-.46-11.2-2.74-16.45Z" transform="translate(-0.88 -0.88)"/><path class="cls-4" d="M84.73,417.08C67.64,401,54.09,382.16,43.2,361.5-8.52,263.39,13.85,145.1,97.69,72.44c5.6-4.86,6.09-7,2.9-12.86,5.91-2.71,10.79-6.89,15.74-11,4.6,4.27,6.9,4.54,12.48,1.18,40.34-24.26,84.09-35.9,131.08-33.93q91.23,3.83,156.69,68a4,4,0,0,1,.51.8,5.32,5.32,0,0,0,.58,3.28,197.15,197.15,0,0,1,10.15,20.5c13.14,29.39,19,60.37,20.36,92.32.44,10.35-.84,20.67-1.81,31a223.56,223.56,0,0,1-9,44.6,239.7,239.7,0,0,1-50.95,90.41,242.82,242.82,0,0,1-76.56,57.49c-32.08,15.42-65.93,22.85-101.27,23.85-15,.42-30-1.24-44.88-3.79A240.65,240.65,0,0,1,88.41,418,6,6,0,0,0,84.73,417.08ZM376.12,191.9A47.22,47.22,0,0,0,362,179.47c2.14-6.71,1.38-9.09-4.79-12.27-35.32-18.26-69.64-16.57-102.71,5.63-2.82,1.89-4.38,1.87-7.08-.06A93.5,93.5,0,0,0,194.19,155C131.5,153.23,83.5,212.19,98.25,272.89c16.26,66.86,93.24,95.8,149.45,56.08,2.63-1.85,4.16-1.65,6.66.11,21.28,15.06,44.91,20.55,70.69,16.76,70.15-10.3,105.05-93.74,63.15-150.95C384.54,189.89,382.1,189.28,376.12,191.9ZM59.85,243.7c-3.9,0-7.81-.12-11.7,0-4.61.17-7.63,3.07-7.71,7.11s2.83,7.25,7.44,7.4q11.7.38,23.41,0c4.58-.15,7.55-3.41,7.48-7.38s-3.13-7-7.7-7.15C67.34,243.58,63.59,243.69,59.85,243.7ZM120,119a7.05,7.05,0,0,0-6.64,10.42c3.73,7.15,7.83,14.13,12.06,21a7,7,0,0,0,10.12,2.43c3.26-2.06,4.39-6,2.31-9.8-3.79-7-7.81-13.77-11.83-20.59A6.64,6.64,0,0,0,120,119Zm.11,263.9a6.28,6.28,0,0,0,5.71-3.25c4.23-7.07,8.5-14.13,12.33-21.42,1.86-3.54.77-7.11-2.79-9.26s-7.24-1.59-9.42,1.86c-4.56,7.23-8.89,14.64-12.79,22.25C110.77,377.71,114.52,382.86,120.09,382.93ZM86.5,198.31c4.4-.5,6.83-2,7.9-5s.61-6.16-2.12-7.87c-7.39-4.62-14.93-9-22.61-13.15-2.7-1.45-5.77-.67-8,1.81s-3.25,5.65-1.08,8C68,190,78.35,193.35,86.5,198.31ZM67.17,330.22A5.67,5.67,0,0,0,69,330c8.2-4.19,16.4-8.45,23.77-14,2.9-2.16,2.87-5.77.84-8.8s-5.07-4.59-8.39-2.83c-7.7,4.08-15.26,8.45-22.68,13C59.9,319,59,322,60.13,325.16A7.06,7.06,0,0,0,67.17,330.22Zm117.35-212c0,4.07-.11,8.14,0,12.2.15,4.4,2.85,7.19,6.83,7.38a7,7,0,0,0,7.69-7q.35-12,0-23.91a7.19,7.19,0,0,0-7.61-7.21c-3.87.17-6.75,3.11-6.92,7.37C184.4,110.75,184.52,114.5,184.52,118.24Zm0,264.84c0,3.9-.11,7.81,0,11.71.16,4.47,3.24,7.55,7.28,7.53a7.19,7.19,0,0,0,7.25-7.1c.23-8,.22-15.94,0-23.9a7.08,7.08,0,0,0-7.57-7.2c-4.16.13-6.86,3-7,7.73C184.43,375.59,184.51,379.34,184.52,383.08Z" transform="translate(-0.88 -0.88)"/><path class="cls-5" d="M84.73,417.08a6,6,0,0,1,3.68.87,240.65,240.65,0,0,0,75.3,26.4c14.86,2.55,29.84,4.21,44.88,3.79,35.34-1,69.19-8.43,101.27-23.85a242.82,242.82,0,0,0,76.56-57.49,239.7,239.7,0,0,0,50.95-90.41,223.56,223.56,0,0,0,9-44.6c1-10.32,2.25-20.64,1.81-31-1.36-32-7.22-62.93-20.36-92.32A197.15,197.15,0,0,0,417.67,88a5.32,5.32,0,0,1-.58-3.28c20.2,19.33,35.71,42,47.46,67.26,16.13,34.64,23.89,71.26,21.41,109.33-5.87,90.1-48.94,157.34-128.7,199.35-55.8,29.4-115,33.14-175.49,15.22-7.45-2.2-9.07-1.79-12.92,3.64l-17.79-7c1.06-6.75.35-8.2-6.1-11.45A232.42,232.42,0,0,1,89.38,422C87.75,420.45,86.28,418.72,84.73,417.08Z" transform="translate(-0.88 -0.88)"/><path class="cls-6" d="M376.12,191.89c6-2.61,8.42-2,12.08,3,41.9,57.21,7,140.65-63.15,151-25.78,3.79-49.41-1.7-70.69-16.76-2.5-1.76-4-2-6.66-.11-56.21,39.72-133.19,10.78-149.45-56.08C83.5,212.19,131.5,153.23,194.19,155a93.5,93.5,0,0,1,53.2,17.81c2.7,1.93,4.26,1.95,7.08.06,33.07-22.2,67.39-23.89,102.71-5.63,6.17,3.18,6.93,5.56,4.79,12.27-4.06,3.54-8,2.76-12.44.34-20.87-11.31-42.68-13.37-65.29-5.82-6.64,1.81-12.53,5.17-18.4,8.65-3,1.77-3.68,3-1,6.06a93,93,0,0,1,23.05,60.09c.53,24.12-7.15,45.61-22.73,64.1-2.37,2.82-3,4.35.7,6.45,5.93,3.37,11.79,6.79,18.42,8.62a77.06,77.06,0,0,0,47,1.62A81.28,81.28,0,0,0,377,204.66C374.06,200.37,372.47,196.43,376.12,191.89ZM191.93,169.61c-44.63-.15-81.35,36.08-81.57,80.48a81.47,81.47,0,1,0,81.57-80.48Z" transform="translate(-0.88 -0.88)"/><path class="cls-7" d="M284.24,174c22.61-7.55,44.42-5.49,65.29,5.82,4.48,2.42,8.38,3.2,12.44-.34a47.22,47.22,0,0,1,14.15,12.43c-3.65,4.53-2.06,8.47.89,12.76a81.28,81.28,0,0,1-45.78,124.92,77.06,77.06,0,0,1-47-1.62A120.46,120.46,0,0,0,284.24,174Z" transform="translate(-0.88 -0.88)"/><path class="cls-8" d="M59.85,243.7c3.74,0,7.49-.12,11.22,0,4.57.19,7.64,3.14,7.7,7.15s-2.9,7.23-7.48,7.38q-11.7.36-23.41,0c-4.61-.15-7.52-3.37-7.44-7.4s3.1-6.94,7.71-7.11C52,243.58,56,243.7,59.85,243.7Z" transform="translate(-0.88 -0.88)"/><path class="cls-9" d="M120,119a6.64,6.64,0,0,1,6,3.47c4,6.82,8,13.64,11.83,20.59,2.08,3.8.95,7.74-2.31,9.8a7,7,0,0,1-10.12-2.43c-4.23-6.88-8.33-13.86-12.06-21A7.05,7.05,0,0,1,120,119Z" transform="translate(-0.88 -0.88)"/><path class="cls-9" d="M120.09,382.93c-5.57-.07-9.32-5.22-7-9.82,3.9-7.61,8.23-15,12.79-22.25,2.18-3.45,5.87-4,9.42-1.86s4.65,5.72,2.79,9.26c-3.83,7.29-8.1,14.35-12.33,21.42A6.28,6.28,0,0,1,120.09,382.93Z" transform="translate(-0.88 -0.88)"/><path class="cls-9" d="M86.5,198.31C78.35,193.35,68,190,60.63,182c-2.17-2.33-1-5.58,1.08-8s5.26-3.26,8-1.81c7.68,4.11,15.22,8.53,22.61,13.15,2.73,1.71,3.17,4.88,2.12,7.87S90.9,197.81,86.5,198.31Z" transform="translate(-0.88 -0.88)"/><path class="cls-9" d="M67.17,330.22a7.06,7.06,0,0,1-7-5.06C59,322,59.9,319,62.53,317.41c7.42-4.58,15-9,22.68-13,3.32-1.76,6.41-.15,8.39,2.83s2.06,6.64-.84,8.8c-7.37,5.52-15.57,9.78-23.77,14A5.67,5.67,0,0,1,67.17,330.22Z" transform="translate(-0.88 -0.88)"/><path class="cls-1" d="M184.52,118.24c0-3.74-.12-7.49,0-11.22.17-4.26,3-7.2,6.92-7.37a7.19,7.19,0,0,1,7.61,7.21q.31,11.94,0,23.91a7,7,0,0,1-7.69,7c-4-.19-6.68-3-6.83-7.38C184.41,126.38,184.52,122.31,184.52,118.24Z" transform="translate(-0.88 -0.88)"/><path class="cls-1" d="M184.51,383.08c0-3.74-.08-7.49,0-11.23.13-4.69,2.83-7.6,7-7.73a7.08,7.08,0,0,1,7.57,7.2c.2,8,.21,15.94,0,23.9a7.19,7.19,0,0,1-7.25,7.1c-4,0-7.12-3.06-7.28-7.53C184.41,390.89,184.52,387,184.51,383.08Z" transform="translate(-0.88 -0.88)"/><path class="cls-10" d="M191.93,169.61a81.37,81.37,0,1,1-81.57,80.48C110.58,205.69,147.3,169.46,191.93,169.61Z" transform="translate(-0.88 -0.88)"/><path class="cls-11" d="M284.24,174a120.46,120.46,0,0,1,0,154c-6.63-1.83-12.49-5.25-18.42-8.62-3.67-2.1-3.07-3.63-.7-6.45,15.58-18.49,23.26-40,22.73-64.1a93,93,0,0,0-23.05-60.09c-2.65-3.07-2-4.29,1-6.06C271.71,179.16,277.6,175.8,284.24,174Z" transform="translate(-0.88 -0.88)"/></svg>