<svg id="Capa_1" data-name="Capa 1" xmlns="http://www.w3.org/2000/svg" viewBox="0 0 500.17 500.22"><defs><style>.cls-1{fill:#fefefe;}.cls-2{fill:#1d2d60;}.cls-3{fill:#23347f;}.cls-4{fill:#192b57;}.cls-5{fill:#223378;}.cls-6{fill:#21316e;}.cls-7{fill:#202f66;}.cls-8{fill:#1e5ab6;}.cls-9{fill:#14c4e4;}.cls-10{fill:#0fb9e7;}.cls-11{fill:#09aee9;}.cls-12{fill:#05a6ea;}.cls-13{fill:#0799e4;}.cls-14{fill:#1085d4;}.cls-15{fill:#117dcf;}.cls-16{fill:#fbfdfe;}</style></defs><title>rtf</title><path class="cls-1" d="M501,251q0,122.78.08,245.55c0,3.5-.54,4.58-4.39,4.58q-245.79-.18-491.58,0c-3.63,0-4.2-.87-4.2-4.29Q1,251,.9,5.21C.9,1.92,1.29.86,5,.86q246,.19,492.07,0c3.42,0,4,.78,3.95,4Q500.9,127.94,501,251ZM453.8,430.65q.06-4.39.14-8.8V242.18c.28-10.38,1.06-20.83-4.71-30.27-7.65-14.3-19.41-22.45-35.74-23.33-7.26-.39-14.56-.15-21.84-.19l-.21-36V90.82c0-4.39.2-8.78,0-13.16-.48-12.58-6.09-23.19-14.78-31.59-10.23-9.88-23.3-13.85-37.53-13.85q-78,0-156.07,0a23.85,23.85,0,0,0-10.35,2.21,22.16,22.16,0,0,0-7.89,5.49Q110.18,94.53,55.52,149.21c-2.51,2.52-4.87,5.18-5.7,8.81a12.49,12.49,0,0,0-2,6.66q.09,21.18.16,42.35V386.72c0,13-.49,26,0,39,.77,22.07,21.85,43.42,44,43.85,27,.54,53.94.05,80.91,0,19.52.05,39.05.16,58.57.15q59.09,0,118.15-.15c21.57,0,43.16.49,64.72-.07,16.51-.42,31-11.41,36.74-27.11A28.36,28.36,0,0,0,453.8,430.65Z" transform="translate(-0.89 -0.86)"/><path class="cls-2" d="M391.44,90.82v61.52H186.92c-6.58,0-8.55,1.73-11.34,7.77-4.19,9.09-1.75,18.91-3.71,28.21-12.93.91-22,7.63-28,18.82L48,207q-.07-21.18-.16-42.35a12.49,12.49,0,0,1,2-6.66c3.75.76,7.28-.92,11-.87,16.88.19,33.75,0,50.63,0a30.85,30.85,0,0,0,4.79-.48c16.16-2.5,29.27-10.65,40.67-22,7.18,2,14.55.41,21.78,1.14,5,.5,8.41-1.33,11.3-5.05a51.47,51.47,0,0,0,7.74-13.37c2.39-6.34,3.43-13,6.14-19.34,2.78-6.47,3.08-7.25,10.1-7.25Z" transform="translate(-0.89 -0.86)"/><path class="cls-3" d="M349.57,469.56q-59.07.07-118.15.15c-19.52,0-39-.1-58.57-.15,1.13-23.4-2.15-46.89,1.78-70.27.78-4.65,2.25-5.83,6.69-5.82q105.06.18,210.13.08.14,5.88.28,11.75l0,11.71-.94,13.66q-1.62,5.34-3.26,10.67c-2.65,4.06-5,8.33-8.2,12C371.4,462.48,361.17,467.23,349.57,469.56Z" transform="translate(-0.89 -0.86)"/><path class="cls-4" d="M391.44,90.82H214c-7,0-7.32.78-10.1,7.25-2.71,6.29-3.75,13-6.14,19.34A51.47,51.47,0,0,1,190,130.78c-2.89,3.72-6.34,5.55-11.3,5.05-7.23-.73-14.6.88-21.78-1.14a27.57,27.57,0,0,1,1.72-2.87c8.16-10.5,13.45-22.43,13.9-35.61.72-20.59.18-41.22.17-61.82a23.85,23.85,0,0,1,10.35-2.21q78,.09,156.07,0c14.23,0,27.3,4,37.53,13.85,8.69,8.4,14.3,19,14.78,31.59C391.64,82,391.46,86.43,391.44,90.82Z" transform="translate(-0.89 -0.86)"/><path class="cls-5" d="M391.45,393.55q-105.06,0-210.13-.08c-4.44,0-5.91,1.17-6.69,5.82-3.93,23.38-.65,46.87-1.78,70.27-27,0-53.95.53-80.91,0-22.12-.43-43.2-21.78-44-43.85-.45-13,0-26,0-39q49.44,0,98.88,0c2.45,0,4.88,0,7.07-1.29,7.1,4.84,14.92,6.39,23.5,6.28,22.58-.31,45.18-.09,67.77-.12q41.45,0,82.88-.15l63.47.18-.07.06Z" transform="translate(-0.89 -0.86)"/><path class="cls-6" d="M154,385.44c-2.19,1.34-4.62,1.29-7.07,1.29q-49.44,0-98.88,0V282.22h55.52c3.08,0,6.09.09,9-1.43,1.57-.82,3.86-1.58,4.67,1.37-6.55,2.29-8,5.25-5.92,11.79a1.92,1.92,0,0,0-1.89,1.83,8.67,8.67,0,0,0,8.16,9.85c8,.09,15.92,0,23.89,0q0,19.51,0,39c-7.49,0-15,0-22.46,0-5.41,0-8.6,3-8.59,7.81s3.19,7.75,8.6,7.81c7.49.07,15,0,22.46,0C141.48,370.79,145.93,379,154,385.44Z" transform="translate(-0.89 -0.86)"/><path class="cls-7" d="M171.87,188.33c2-9.3-.48-19.12,3.71-28.21,2.79-6,4.76-7.77,11.34-7.77H391.44l.21,36-.16.1-177.16,0c-7,0-14,.1-21,.15Z" transform="translate(-0.89 -0.86)"/><path class="cls-8" d="M172.74,34.39c0,20.6.55,41.23-.17,61.82-.45,13.18-5.74,25.11-13.9,35.61a27.57,27.57,0,0,0-1.72,2.87c-11.4,11.31-24.51,19.46-40.67,22a30.85,30.85,0,0,1-4.79.48c-16.88.07-33.75.21-50.63,0-3.76-.05-7.29,1.63-11,.87.83-3.63,3.19-6.29,5.7-8.81Q110.17,94.52,164.85,39.88A22.16,22.16,0,0,1,172.74,34.39Z" transform="translate(-0.89 -0.86)"/><path class="cls-7" d="M117.21,282.17c-.81-2.95-3.1-2.19-4.67-1.37-2.92,1.52-5.93,1.43-9,1.43H48V207l95.88.11c-1.14,4.12-2.54,8.19-2.5,12.54l-20.32,0c-9.42,0-12.2,3.64-9.74,12.7-2.22,6.09.76,10.61,7.25,10.72,7.62.12,15.24,0,22.86,0q.15,12.22.31,24.44l-.35,14.6Z" transform="translate(-0.89 -0.86)"/><path class="cls-9" d="M453.94,329.1v92.75c-1.75-1.55-1.62-4-2.81-5.85-3.24-3.88-4-9.77-9.63-11.73-3.22-5.62-9-7.44-14.46-9.74-11.51-4.88-23.65-2.34-35.53-2.83l.07-.07V360.34q0-15.55,0-31.12l6.52-.25Z" transform="translate(-0.89 -0.86)"/><path class="cls-10" d="M453.94,329.1,398.12,329q.18-18,.35-36h55.47Z" transform="translate(-0.89 -0.86)"/><path class="cls-10" d="M349.57,469.56c11.6-2.33,21.83-7.08,29.79-16.18,3.24-3.71,5.55-8,8.2-12,1.9,1.2,4,1.05,6.13,1.05H451c-5.76,15.7-20.23,26.69-36.74,27.11C392.73,470.05,371.14,469.58,349.57,469.56Z" transform="translate(-0.89 -0.86)"/><path class="cls-11" d="M453.94,293H398.47c0-1.63,0-3.26,0-4.89l.92-.78c11.85-.06,23.69-.21,35.54-.09,3,0,4-.8,3.84-3.82a85.9,85.9,0,0,1,0-11.68c.26-3.46-1.3-4-4.27-4-7.46.15-14.94.18-22.4,0-4.48-.11-10.34,2-13.06-.94s-.44-8.69-.84-13.18c-.29-3.24,1-4.13,4.12-4.08,10.39.17,20.78.06,31.17.06,7.67,0,7.67,0,8.07-7.42h12.37Z" transform="translate(-0.89 -0.86)"/><path class="cls-12" d="M453.94,242.18H441.57a45.62,45.62,0,0,1-.1-6.81c.51-4-.86-5.18-5-5.13-15,.21-29.93,0-44.89-.1l.06-17.23,51.45,0c2.1,0,4.23.21,6.13-1C455,221.35,454.22,231.8,453.94,242.18Z" transform="translate(-0.89 -0.86)"/><path class="cls-13" d="M449.23,211.91c-1.9,1.19-4,1-6.13,1l-51.45,0q-.09-12.21-.16-24.42l.16-.1c7.28,0,14.58-.2,21.84.19C429.82,189.46,441.58,197.61,449.23,211.91Z" transform="translate(-0.89 -0.86)"/><path class="cls-12" d="M451.13,416c1.19,1.83,1.06,4.3,2.81,5.85q-.07,4.41-.14,8.8l-63,0q.48-6.82.94-13.66c8.29,0,16.59.16,24.87-.06C428.13,416.66,439.68,418,451.13,416Z" transform="translate(-0.89 -0.86)"/><path class="cls-11" d="M390.82,430.67l63,0A28.36,28.36,0,0,1,451,442.38H393.69c-2.11,0-4.23.15-6.13-1.05Q389.19,436,390.82,430.67Z" transform="translate(-0.89 -0.86)"/><path class="cls-14" d="M141.39,219.68c0-4.35,1.36-8.42,2.5-12.54,6-11.18,15.05-17.9,28-18.81l21.48.29c.8,2.62,3.22,2.36,5.15,2.79q41.37,9.24,82.75,18.38c20.5,4.51,41.05,8.83,61.53,13.4,10.08,2.24,20.35,3.7,30.12,7.24l-.42,23.47c-4.28-.65-9.3.88-12.16-4.05,2.37-.32,2-2.12,2-3.71,0-3.74-.23-7.5.06-11.22.28-3.51-.64-4.69-4.45-4.66-27.48.18-55,.06-82.46.13-3.85,0-7.25,1.91-11.58,1.15-14.47-2.56-29.19-.84-43.81-1.16-8-.18-8,0-8.58,7.9-13.36-2.83-26.71-5.73-40.09-8.46-9.91-2-19.65-4.94-29.73-6.16C141.58,222.33,141.48,221,141.39,219.68Z" transform="translate(-0.89 -0.86)"/><path class="cls-13" d="M451.13,416c-11.45,2-23,.66-34.5.95-8.28.22-16.58.05-24.87.06l0-11.71c13.72,0,27.45-.06,41.18,0a27.31,27.31,0,0,0,8.59-1C447.09,406.23,447.89,412.12,451.13,416Z" transform="translate(-0.89 -0.86)"/><path class="cls-14" d="M441.5,404.27a27.31,27.31,0,0,1-8.59,1c-13.73-.05-27.46,0-41.18,0q-.15-5.88-.28-11.75l.06-1.86c11.88.5,24-2,35.53,2.84C432.46,396.83,438.28,398.65,441.5,404.27Z" transform="translate(-0.89 -0.86)"/><path class="cls-11" d="M391.58,360.34v31.29l-63.47-.18c-.54-2.49-2.64-2.45-4.52-2.87-17.19-3.83-34.35-7.76-51.55-11.52-35.35-7.74-70.69-15.49-106.08-23-8-1.71-15.86-4.65-24.25-4.45-.11-1.64-.21-3.28-.31-4.92q0-19.51,0-39c.1-.65.21-1.3.31-1.94a27.88,27.88,0,0,1,4.85.21c12,2.63,23.9,5.57,35.92,8,9.63,1.93,19,5.33,29,5.48.08,2.73.35,5.47.19,8.19s.92,3.59,3.61,3.51c6.28-.16,12.57-.06,18.85-.05,1.47,0,3,.16,3.24-1.88a13,13,0,0,1,2.43.09q46.57,10.18,93.13,20.4Q362.25,354,391.58,360.34Z" transform="translate(-0.89 -0.86)"/><path class="cls-10" d="M141.71,349.62c8.39-.2,16.22,2.74,24.25,4.45,35.39,7.5,70.73,15.25,106.08,23,17.2,3.76,34.36,7.69,51.55,11.52,1.88.42,4,.38,4.52,2.87q-41.43.07-82.88.15c-22.59,0-45.19-.19-67.77.12-8.58.11-16.4-1.44-23.5-6.28-8-6.42-12.48-14.65-12.55-25.06Z" transform="translate(-0.89 -0.86)"/><path class="cls-3" d="M117.21,282.17l24.19,0v15.7c-7.44,0-14.89-.07-22.33,0-3.35,0-6-1-7.78-3.94C109.17,287.42,110.66,284.46,117.21,282.17Z" transform="translate(-0.89 -0.86)"/><path class="cls-3" d="M141.71,349.62l-.3,10.76c-7.49,0-15,0-22.46,0-5.41-.06-8.6-3-8.6-7.81s3.18-7.76,8.59-7.81c7.49-.07,15,0,22.46,0C141.5,346.34,141.6,348,141.71,349.62Z" transform="translate(-0.89 -0.86)"/><path class="cls-7" d="M111.29,294c1.76,3,4.43,4,7.78,3.94,7.44-.08,14.89,0,22.33,0l.36,5.83c-.1.64-.21,1.29-.31,1.94-8,0-15.93.07-23.89,0a8.67,8.67,0,0,1-8.16-9.85A1.92,1.92,0,0,1,111.29,294Z" transform="translate(-0.89 -0.86)"/><path class="cls-15" d="M372.9,230.43c-9.77-3.54-20-5-30.12-7.24-20.48-4.57-41-8.89-61.53-13.4q-41.38-9.12-82.75-18.38c-1.93-.43-4.35-.17-5.15-2.79,7-.05,14-.15,21-.15l177.16,0q.08,12.21.16,24.42l-.06,17.23Z" transform="translate(-0.89 -0.86)"/><path class="cls-13" d="M141.67,223.66c10.08,1.22,19.82,4.14,29.73,6.16,13.38,2.73,26.73,5.63,40.09,8.46v43.94c-14.27-3.12-28.51-6.44-42.83-9.3-9-1.8-17.71-4.73-26.91-5.33q-.17-12.22-.31-24.44l0-7.74Z" transform="translate(-0.89 -0.86)"/><path class="cls-12" d="M141.75,267.59c9.2.6,17.94,3.53,26.91,5.33,14.32,2.86,28.56,6.18,42.83,9.3.41,11.72.37,23.44,0,35.16-10-.15-19.33-3.55-29-5.48-12-2.4-23.94-5.34-35.92-8a27.88,27.88,0,0,0-4.85-.21l-.36-5.83v-15.7Q141.58,274.89,141.75,267.59Z" transform="translate(-0.89 -0.86)"/><path class="cls-3" d="M141.67,223.66q-.12,5.88-.26,11.75c-6.91,0-13.83-.18-20.74,0a12.86,12.86,0,0,1-9.34-3c-2.46-9.06.32-12.69,9.74-12.7l20.32,0C141.48,221,141.58,222.33,141.67,223.66Z" transform="translate(-0.89 -0.86)"/><path class="cls-4" d="M111.33,232.41a12.86,12.86,0,0,0,9.34,3c6.91-.22,13.83,0,20.74,0l0,7.74c-7.62,0-15.24.1-22.86,0C112.09,243,109.11,238.5,111.33,232.41Z" transform="translate(-0.89 -0.86)"/><path class="cls-12" d="M391.58,360.34q-29.32-6.34-58.64-12.7-46.56-10.17-93.13-20.4a13,13,0,0,0-2.43-.09q-.09-16.08-.2-32.15c0-1.66-.1-3,2.35-3.29,10-1.25,16.12,1.54,20.87,10.59,4.22,8,8.07,16.23,11.82,24.48.71,1.56,1.17,2.3,2.92,2.28q11.21-.09,22.41,0c2.36,0,3-.79,1.85-2.86-7-12.93-11.73-27.13-21.26-38.68,1.35-2.1,3.42-1.53,5.2-1.15,6.84,1.45,13.63,3.09,20.44,4.65.08,11.22.27,22.43.16,33.64,0,3.29.75,4.65,4.31,4.47a170.51,170.51,0,0,1,17.07,0c3.58.19,4.31-1.21,4.27-4.47-.07-5.67-.55-11.37.31-17,3.93-.34,7.63.87,11.41,1.61,10.4,2,20.57,5.19,31.16,6.19a75.23,75.23,0,0,1,.25,8.74c-.28,3.67.68,5.26,4.74,5,4.68-.34,9.42,0,14.14.08Q391.58,344.79,391.58,360.34Z" transform="translate(-0.89 -0.86)"/><path class="cls-16" d="M391.6,329.22c-4.72-.05-9.46-.42-14.14-.08-4.06.3-5-1.29-4.74-5a75.23,75.23,0,0,0-.25-8.74q.78-30.76,0-61.54l.42-23.47,18.69-.29c15,.07,29.93.31,44.89.1,4.13-.05,5.5,1.1,5,5.13a45.62,45.62,0,0,0,.1,6.81c-.4,7.42-.4,7.42-8.07,7.42-10.39,0-20.78.11-31.17-.06-3.14,0-4.41.84-4.12,4.08.4,4.49-1.81,10.28.84,13.18s8.58.83,13.06.94c7.46.18,14.94.15,22.4,0,3-.06,4.53.51,4.27,4a85.9,85.9,0,0,0,0,11.68c.19,3-.86,3.84-3.84,3.82-11.85-.12-23.69,0-35.54.09-.61-.09-1,.07-.92.78,0,1.63,0,3.26,0,4.89q-.17,18-.35,36Z" transform="translate(-0.89 -0.86)"/><path class="cls-10" d="M398.48,288.08c-.08-.71.31-.87.92-.78Z" transform="translate(-0.89 -0.86)"/><path class="cls-16" d="M329.9,307.64c-.86,5.65-.38,11.35-.31,17,0,3.26-.69,4.66-4.27,4.47a170.51,170.51,0,0,0-17.07,0c-3.56.18-4.34-1.18-4.31-4.47.11-11.21-.08-22.42-.16-33.64.08-9.88.2-19.77.23-29.66,0-12.14,0-12.07-12.4-11.81-2.8.06-3.86.51-3.7,3.78.81,16.35-3.11,22.67-17.56,29.35l7.79,4.84c9.53,11.55,14.24,25.75,21.26,38.68,1.12,2.07.51,2.89-1.85,2.86q-11.21-.1-22.41,0c-1.75,0-2.21-.72-2.92-2.28-3.75-8.25-7.6-16.47-11.82-24.48-4.75-9.05-10.89-11.84-20.87-10.59-2.45.31-2.36,1.63-2.35,3.29q.1,16.08.2,32.15c-.25,2-1.77,1.89-3.24,1.88-6.28,0-12.57-.11-18.85.05-2.69.08-3.78-.7-3.61-3.51s-.11-5.46-.19-8.19c.37-11.72.41-23.44,0-35.16V238.28c.6-7.94.6-8.08,8.58-7.9,14.62.32,29.34-1.4,43.81,1.16,4.33.76,7.73-1.14,11.58-1.15,27.49-.07,55,.05,82.46-.13,3.81,0,4.73,1.15,4.45,4.66-.29,3.72-.06,7.48-.06,11.22,0,1.59.38,3.39-2,3.71-5.82-.08-11.65-.27-17.47-.21-4.19,0-9.53-1.77-12.25.74-3,2.78-1,8.29-1,12.58C329.65,277.85,329,292.75,329.9,307.64Zm-92.72-46.41c0,14.46,0,14.46,14.11,12.56,8.66-1.16,11.81-4.94,11.38-13.68-.35-7.39-4.1-10.76-12.42-11.19C237.18,248.25,237.18,248.25,237.18,261.23Z" transform="translate(-0.89 -0.86)"/><path class="cls-13" d="M329.9,307.64c-.89-14.89-.25-29.79-.32-44.68,0-4.29-2-9.8,1-12.58,2.72-2.51,8.06-.7,12.25-.74,5.82-.06,11.65.13,17.47.21,2.86,4.93,7.88,3.4,12.16,4.05q.76,30.77,0,61.54c-10.59-1-20.76-4.16-31.16-6.19C337.53,308.51,333.83,307.3,329.9,307.64Z" transform="translate(-0.89 -0.86)"/><path class="cls-13" d="M278.14,287.52l-7.79-4.84c14.45-6.68,18.37-13,17.56-29.35-.16-3.27.9-3.72,3.7-3.78,12.41-.26,12.44-.33,12.4,11.81,0,9.89-.15,19.78-.23,29.66-6.81-1.56-13.6-3.2-20.44-4.65C281.56,286,279.49,285.42,278.14,287.52Z" transform="translate(-0.89 -0.86)"/><path class="cls-13" d="M237.18,261.23c0-13,0-13,13.07-12.31,8.32.43,12.07,3.8,12.42,11.19.43,8.74-2.72,12.52-11.38,13.68C237.19,275.69,237.19,275.69,237.18,261.23Z" transform="translate(-0.89 -0.86)"/></svg>